#N canvas 83 24 1357 646 12;
#X declare -lib timbreID/timbreIDLib;
#X obj 17 126 declare -lib timbreID/timbreIDLib;
#X obj 40 229 mfcc~ 1024 100;
#X obj 273 84 adc~;
#X msg 273 45 \; pd dsp \$1;
#X obj 273 25 tgl 15 0 empty empty DSP 17 7 0 10 -262130 -1 -1 1 1
;
#X obj 273 109 s~ \$0-audio;
#X obj 40 179 r~ \$0-audio;
#X obj 379 47 metro 100;
#X obj 379 26 tgl 15 0 empty empty FrameRate 17 7 0 10 -262130 -1 -1
1 1;
#X obj 379 72 s \$0-metro;
#X obj 48 204 r \$0-metro;
#X text 15 107 Dependencies;
#X obj 40 255 list split 1;
#X obj 80 280 s \$0-mfcc;
#X msg 376 252 disconnect;
#X floatatom 367 405 0 0 0 0 - - -;
#X obj 397 404 print backward;
#X msg 367 201 connect localhost 6448;
#X obj 485 29 tgl 15 0 empty empty OSC_Wekinator 17 7 0 10 -262130
-1 -1 0 1;
#X obj 485 75 bng 15 250 50 0 empty empty empty 17 7 0 10 -262144 -1
-1;
#X obj 545 75 bng 15 250 50 0 empty empty empty 17 7 0 10 -262144 -1
-1;
#X obj 485 50 moses 0.5;
#X obj 386 281 r \$0-mfcc;
#X obj 367 377 netsend -u -b;
#X obj 386 352 list trim;
#X obj 386 329 list prepend send;
#X obj 386 305 oscformat /wek/inputs;
#N canvas 0 22 450 278 (subpatch) 0;
#X array \$0-mfcc 37 float 1;
#A 0 0.249884 -0.178424 0.0986121 -0.0029847 -0.081513 0.0832589 -0.145321
0.14695 -0.0631112 0.0924426 -0.0781754 0.119322 -0.116027 0.107121
-0.0605349 -0.00565804 -0.0683236 0.0898821 -0.0777462 0.0180898 -0.00412353
0.0155376 0.0203764 0.0105428 0.0243106 -0.0338247 0.0212729 -0.0170787
0.00279598 -0.0198172 -0.015329 0.00520467 0.0163509 -0.00611376 0.0115399
0.0167697 0;
#X coords 0 1 37 -1 200 140 1;
#X restore 151 179 graph;
#X text 16 13 Enric Guaus \; 28/10/2021 \; ESMUC \; Màster en Improvisació
\; Interacció amb màquines I;
#X msg 542 201 listen 12000;
#X obj 542 279 netreceive -u -b;
#X obj 542 303 oscparse;
#X obj 542 327 unpack s s f f f f;
#X obj 542 401 vsl 35 128 0 1 0 0 empty empty empty 0 -9 0 10 -204786
-1 -1 0 1;
#X obj 542 375 line;
#X msg 542 351 \$1 200;
#X obj 595 401 vsl 35 128 0 1 0 0 empty empty empty 0 -9 0 10 -204786
-1 -1 4090 1;
#X obj 595 375 line;
#X msg 595 351 \$1 200;
#X obj 648 401 vsl 35 128 0 1 0 0 empty empty empty 0 -9 0 10 -204786
-1 -1 10829 1;
#X obj 648 375 line;
#X msg 648 351 \$1 200;
#X obj 701 401 vsl 35 128 0 1 0 0 empty empty empty 0 -9 0 10 -204786
-1 -1 12700 1;
#X obj 701 375 line;
#X msg 701 351 \$1 200;
#X obj 512 98 s \$0-weki_connect;
#X obj 485 122 s \$0-weki_disconnect;
#X obj 367 178 r \$0-weki_connect;
#X obj 376 227 r \$0-weki_disconnect;
#X obj 542 177 r \$0-weki_connect;
#X obj 550 225 r \$0-weki_disconnect;
#X msg 550 251 listen 0;
#X obj 367 431 tgl 15 0 empty empty empty 17 7 0 10 -204786 -1 -1 0
1;
#X obj 774 420 ctlout;
#X msg 813 395 1;
#X obj 793 344 r \$0-controller;
#X obj 813 369 loadbang;
#X obj 907 420 ctlout;
#X obj 926 344 r \$0-controller;
#X obj 946 369 loadbang;
#X obj 1040 420 ctlout;
#X obj 1059 344 r \$0-controller;
#X obj 1079 369 loadbang;
#X obj 1173 420 ctlout;
#X obj 1192 344 r \$0-controller;
#X obj 1212 369 loadbang;
#X msg 946 395 2;
#X msg 1079 395 3;
#X msg 1212 395 4;
#X obj 542 604 s \$0-midi1;
#X obj 701 536 s \$0-midi4;
#X obj 648 559 s \$0-midi3;
#X obj 595 581 s \$0-midi2;
#X msg 774 201 1;
#X text 806 205 PitchBend;
#X obj 774 225 s \$0-controller;
#X obj 774 320 * 127;
#X obj 907 319 * 127;
#X obj 1040 320 * 127;
#X obj 1173 320 * 127;
#X obj 642 32 tgl 15 0 empty empty MIDI_out 17 7 0 10 -262130 -1 -1
1 1;
#X obj 774 295 moses;
#X obj 642 53 s \$0-midi_act;
#X obj 774 177 r \$0-midi_act;
#X obj 774 250 r \$0-midi1;
#X obj 806 272 r \$0-midi_act;
#X obj 907 295 moses;
#X obj 939 272 r \$0-midi_act;
#X obj 1040 295 moses;
#X obj 1072 272 r \$0-midi_act;
#X obj 1173 295 moses;
#X obj 1205 272 r \$0-midi_act;
#X obj 907 250 r \$0-midi2;
#X obj 1040 250 r \$0-midi3;
#X obj 1173 250 r \$0-midi4;
#X connect 1 0 12 0;
#X connect 2 0 5 0;
#X connect 4 0 3 0;
#X connect 6 0 1 0;
#X connect 7 0 9 0;
#X connect 8 0 7 0;
#X connect 10 0 1 0;
#X connect 12 1 13 0;
#X connect 14 0 23 0;
#X connect 15 0 52 0;
#X connect 17 0 23 0;
#X connect 18 0 21 0;
#X connect 19 0 46 0;
#X connect 20 0 45 0;
#X connect 21 0 19 0;
#X connect 21 1 20 0;
#X connect 22 0 26 0;
#X connect 23 0 15 0;
#X connect 23 1 16 0;
#X connect 24 0 23 0;
#X connect 25 0 24 0;
#X connect 26 0 25 0;
#X connect 29 0 30 0;
#X connect 30 0 31 0;
#X connect 31 0 32 0;
#X connect 32 2 35 0;
#X connect 32 3 38 0;
#X connect 32 4 41 0;
#X connect 32 5 44 0;
#X connect 33 0 69 0;
#X connect 34 0 33 0;
#X connect 35 0 34 0;
#X connect 36 0 72 0;
#X connect 37 0 36 0;
#X connect 38 0 37 0;
#X connect 39 0 71 0;
#X connect 40 0 39 0;
#X connect 41 0 40 0;
#X connect 42 0 70 0;
#X connect 43 0 42 0;
#X connect 44 0 43 0;
#X connect 47 0 17 0;
#X connect 48 0 14 0;
#X connect 49 0 29 0;
#X connect 50 0 51 0;
#X connect 51 0 30 0;
#X connect 54 0 53 2;
#X connect 55 0 53 1;
#X connect 56 0 54 0;
#X connect 58 0 57 1;
#X connect 59 0 66 0;
#X connect 61 0 60 1;
#X connect 62 0 67 0;
#X connect 64 0 63 1;
#X connect 65 0 68 0;
#X connect 66 0 57 2;
#X connect 67 0 60 2;
#X connect 68 0 63 2;
#X connect 73 0 75 0;
#X connect 76 0 53 0;
#X connect 77 0 57 0;
#X connect 78 0 60 0;
#X connect 79 0 63 0;
#X connect 80 0 82 0;
#X connect 81 0 76 0;
#X connect 83 0 73 0;
#X connect 84 0 81 0;
#X connect 85 0 81 1;
#X connect 86 0 77 0;
#X connect 87 0 86 1;
#X connect 88 0 78 0;
#X connect 89 0 88 1;
#X connect 90 0 79 0;
#X connect 91 0 90 1;
#X connect 92 0 86 0;
#X connect 93 0 88 0;
#X connect 94 0 90 0;
