#N canvas 383 45 370 224 12;
#X obj 146 25 inlet;
#X obj 256 26 inlet;
#X text 144 6 data;
#X text 255 7 mode;
#X obj 256 59 == 1;
#X obj 217 86 spigot;
#X obj 146 83 spigot;
#X obj 185 56 == 0;
#X obj 146 163 line;
#X msg 146 139 \$1 200;
#X obj 146 188 outlet;
#X obj 217 111 expr exp(-$f1/1000);
#X text 7 6 Enric Guaus \; 10/03/2021 \; Lutheria Digital \; ENTI;
#X connect 0 0 6 0;
#X connect 0 0 5 0;
#X connect 1 0 7 0;
#X connect 1 0 4 0;
#X connect 4 0 5 1;
#X connect 5 0 11 0;
#X connect 6 0 9 0;
#X connect 7 0 6 1;
#X connect 8 0 10 0;
#X connect 9 0 8 0;
#X connect 11 0 9 0;
