#N canvas 264 130 1112 707 12;
#X declare -lib ml.lib;
#X declare -lib timbreIDLib;
#X declare -lib zexy;
#X obj 18 135 declare -lib ml.lib;
#X text 8 93 Dependencies;
#X obj 18 112 declare -lib timbreIDLib;
#X text 10 7 Enric Guaus;
#X text 11 39 MAI;
#X text 10 56 Sonar+D;
#X obj 457 358 bng 15 250 50 0 empty empty Clear\ data 18 7 0 10 #ffc7c6 #000000 #000000;
#X msg 457 378 clear;
#X obj 746 296 f 0;
#X obj 774 296 + 1;
#X obj 746 273 bng 19 250 50 0 empty empty empty 0 -10 0 12 #fcfcfc #000000 #000000;
#X msg 773 274 0;
#X obj 754 250 t b b;
#X obj 746 42 bng 19 250 50 0 empty empty Write 0 -10 0 12 #feffc6 #000000 #000000;
#X obj 747 128 bng 19 250 50 0 empty empty Read 0 -10 0 12 #feffc6 #000000 #000000;
#X obj 918 228 timbreID;
#X obj 506 37 tgl 15 0 empty empty Rec\ data 18 7 0 10 #feffc6 #000000 #000000 0 1;
#X obj 457 37 spigot;
#X obj 457 60 s \$0-tID;
#X obj 457 14 r \$0-mfcc;
#X obj 918 204 r \$0-tID;
#X obj 457 425 s \$0-tID;
#X obj 464 402 s \$0-clear;
#X obj 753 226 r \$0-clear;
#X obj 521 59 s \$0-toCounter;
#X obj 746 203 r \$0-toCounter;
#X obj 457 307 spigot;
#X obj 506 307 tgl 15 0 empty empty Play 18 7 0 10 #feffc6 #000000 #000000 0 1;
#X obj 457 330 s \$0-id;
#X obj 457 281 r \$0-mfcc;
#X obj 457 257 s \$0-tID;
#X obj 982 204 r \$0-id;
#X obj 935 253 nbx 5 17 -1e+37 1e+37 0 0 empty empty proximity 70 10 0 12 #c6ffc7 #000000 #000000 0 256;
#X msg 746 66 write /Users/enric/Desktop/feature-db.timid;
#X msg 747 151 read /Users/enric/Desktop/feature-db.timid;
#X obj 747 174 s \$0-tID;
#X obj 746 89 s \$0-tID;
#X obj 467 123 vradio 19 1 0 3 empty empty #clusters(2\,4\,8) 0 -10 0 10 #feffc6 #000000 #000000 0;
#X obj 746 319 nbx 5 17 -1e+37 1e+37 0 0 empty empty #instances 70 10 0 12 #c6ffc7 #000000 #000000 0 256;
#X obj 918 275 nbx 5 17 -1e+37 1e+37 0 0 empty empty #cluster 70 10 0 12 #c6ffc7 #000000 #000000 0 256;
#X obj 457 453 bng 15 250 50 0 empty empty Uncluster 18 7 0 10 #ffc7c6 #000000 #000000;
#X obj 457 497 s \$0-tID;
#X obj 467 186 expr pow(2 \, $f1+1);
#X obj 523 211 nbx 5 17 -1e+37 1e+37 0 0 empty empty #clusters 70 10 0 12 #c6ffc7 #000000 #000000 0 256;
#X msg 457 473 uncluster;
#X obj 457 85 bng 15 250 50 0 empty empty Cluster 18 7 0 10 #feffc6 #000000 #000000;
#X msg 457 233 cluster \$2;
#X text 492 142 bang and wait!;
#X obj 918 321 bng 19 250 50 0 empty empty empty 0 -10 0 12 #bbbbbb #000000 #000000;
#X obj 939 321 bng 19 250 50 0 empty empty empty 0 -10 0 12 #ffc7c6 #000000 #000000;
#X obj 960 321 bng 19 250 50 0 empty empty empty 0 -10 0 12 #ffe3c6 #000000 #000000;
#X obj 981 321 bng 19 250 50 0 empty empty empty 0 -10 0 12 #feffc6 #000000 #000000;
#X obj 1002 321 bng 19 250 50 0 empty empty empty 0 -10 0 12 #c6ffc7 #000000 #000000;
#X obj 1023 321 bng 19 250 50 0 empty empty empty 0 -10 0 12 #c6feff #000000 #000000;
#X obj 1044 321 bng 19 250 50 0 empty empty empty 0 -10 0 12 #c7c6ff #000000 #000000;
#X obj 1065 321 bng 19 250 50 0 empty empty empty 0 -10 0 12 #e3c6ff #000000 #000000;
#X obj 18 158 declare -lib zexy;
#X obj 457 210 pack f f;
#X obj 918 297 route 0 1 2 3 4 5 6 7;
#X text 11 23 16/06/2023;
#X obj 10 365 r~ \$0-audio;
#X obj 18 412 r \$0-metro;
#X obj 10 463 list split 1;
#X obj 50 534 s \$0-mfcc;
#N canvas 0 22 450 278 (subpatch) 0;
#X array \$0-mfcc 13 float 1;
#A 0 0 0 0 0 0 0 0 0 0 0 0 0 0.0129553;
#X coords 0 1 12 -1 200 70 1 0 0;
#X restore 7 572 graph;
#X obj 10 246 tabwrite~ audio_in;
#N canvas 179 204 450 278 (subpatch) 0;
#X array audio_in 100 float 3;
#A 0 -0.00108634 -0.00132172 -0.00148471 -0.00155234 -0.00134407 -0.000923361 -0.000144081 0.000476176 0.000409318 -9.58829e-05 -0.000744863 -0.00113996 -0.00101213 -0.00070641 -0.000436998 -0.000144552 -4.26624e-05 0.000183657 0.000387377 -0.000225189 -0.000772835 -0.000463283 0.000190409 0.000799338 0.00121366 0.00106202 0.000116742 -0.000844728 -0.00143456 -0.00153553 -0.00077026 0.000181902 0.000645111 0.000533676 0.000122698 -0.00031032 -0.000818928 -0.00104247 -0.000745465 -0.000109916 0.000625539 0.00121939 0.00139219 0.00109574 0.00100643 0.00111908 0.00082443 0.000252899 -0.000415053 -0.000840748 -0.000892747 -0.000757958 -0.000343117 -0.00010299 -8.56893e-05 0.000139946 7.30956e-05 -7.40279e-05 0.000226563 0.000286104 0.000245892 0.000603605 0.000651262 0.000250741 4.99665e-05 8.49775e-05 6.33793e-05 -9.5479e-05 -0.000179976 -1.83744e-05 -7.72949e-05 -0.000446897 -0.000527956 -0.000588725 -0.000391326 0.000528765 0.00098422 0.00101799 0.00120743 0.000884322 0.000400386 -6.60536e-05 -0.000812428 -0.00152208 -0.0021549 -0.00196901 -0.000772224 0.000182261 0.000883676 0.00137269 0.000943509 -7.92833e-05 -0.000809257 -0.000831144 -0.000697496 -0.00049405 -2.06417e-05 0.000221826 0.000424966 0.000471413;
#X coords 0 1 100 -1 200 70 1 0 0;
#X restore 9 283 graph;
#X obj 10 197 r~ \$0-audio;
#X obj 18 221 r \$0-metro;
#X obj 58 490 list length;
#X obj 10 437 mfcc~ 1024 250;
#X obj 146 432 vu 15 120 empty empty -1 -10 0 10 #404040 #000000 1 0;
#X obj 145 407 - 96;
#X obj 145 384 env~;
#X obj 58 512 nbx 3 19 -1e+37 1e+37 0 0 empty empty #mfcc 47 10 0 12 #c6ffc7 #000000 #000000 0 256;
#X obj 328 116 adc~;
#X msg 328 77 \; pd dsp \$1;
#X obj 328 57 tgl 15 0 empty empty DSP 17 7 0 10 #ffffff #000000 #000000 0 1;
#X obj 328 141 s~ \$0-audio;
#X obj 249 77 metro 100;
#X obj 249 57 tgl 15 0 empty empty FrameRate 17 7 0 10 #ffffff #000000 #000000 0 1;
#X obj 249 101 s \$0-metro;
#X obj 249 13 tgl 15 0 empty empty Audio\ on/off 18 7 0 10 #feffc6 #000000 #000000 0 1;
#X obj 249 33 t b b;
#X obj 725 454 r \$0-outProbs;
#X obj 725 478 route probs;
#X obj 725 503 unpack f f f f f f f f;
#X obj 777 614 line;
#X msg 724 614 \$1 200;
#X obj 890 593 nbx 5 17 -1e+37 1e+37 0 0 empty empty empty 0 -10 0 12 #c6ffc7 #000000 #000000 0 256;
#X obj 890 527 + 6;
#X obj 919 527 / 10;
#X obj 890 549 max 0;
#X obj 931 549 min 1;
#X obj 890 571 * 127;
#X obj 973 593 nbx 5 17 -1e+37 1e+37 0 0 empty empty empty 0 -10 0 12 #c6ffc7 #000000 #000000 0 256;
#X obj 973 527 + 6;
#X obj 1002 527 / 10;
#X obj 973 549 max 0;
#X obj 1014 549 min 1;
#X obj 973 571 * 127;
#X obj 724 593 nbx 5 17 -1e+37 1e+37 0 0 empty empty empty 0 -10 0 12 #c6ffc7 #000000 #000000 0 256;
#X obj 724 527 + 6;
#X obj 753 527 / 10;
#X obj 724 549 max 0;
#X obj 765 549 min 1;
#X obj 724 571 * 127;
#X obj 807 593 nbx 5 17 -1e+37 1e+37 0 0 empty empty empty 0 -10 0 12 #c6ffc7 #000000 #000000 0 256;
#X obj 807 527 + 6;
#X obj 836 527 / 10;
#X obj 807 549 max 0;
#X obj 848 549 min 1;
#X obj 807 571 * 127;
#X obj 834 618 hsl 162 15 0 127 0 0 empty empty #1 -20 7 0 10 #c6ffc7 #000000 #000000 0 1;
#X obj 777 636 line;
#X msg 724 636 \$1 200;
#X obj 834 640 hsl 162 15 0 127 0 0 empty empty #2 -20 7 0 10 #c6ffc7 #000000 #000000 0 1;
#X obj 777 658 line;
#X msg 724 658 \$1 200;
#X obj 834 662 hsl 162 15 0 127 0 0 empty empty #3 -20 7 0 10 #c6ffc7 #000000 #000000 0 1;
#X obj 777 680 line;
#X msg 724 680 \$1 200;
#X obj 834 684 hsl 162 15 0 127 0 0 empty empty #4 -20 7 0 10 #c6ffc7 #000000 #000000 0 1;
#X connect 6 0 7 0;
#X connect 7 0 21 0;
#X connect 7 0 22 0;
#X connect 8 0 9 0;
#X connect 8 0 38 0;
#X connect 9 0 8 1;
#X connect 10 0 8 0;
#X connect 11 0 8 1;
#X connect 12 0 10 0;
#X connect 12 1 11 0;
#X connect 13 0 33 0;
#X connect 14 0 34 0;
#X connect 15 0 39 0;
#X connect 15 1 32 0;
#X connect 16 0 17 1;
#X connect 17 0 18 0;
#X connect 17 0 24 0;
#X connect 19 0 17 0;
#X connect 20 0 15 0;
#X connect 23 0 12 0;
#X connect 25 0 10 0;
#X connect 26 0 28 0;
#X connect 27 0 26 1;
#X connect 29 0 26 0;
#X connect 31 0 15 1;
#X connect 33 0 36 0;
#X connect 34 0 35 0;
#X connect 37 0 42 0;
#X connect 39 0 58 0;
#X connect 40 0 44 0;
#X connect 42 0 43 0;
#X connect 42 0 57 1;
#X connect 44 0 41 0;
#X connect 45 0 57 0;
#X connect 46 0 30 0;
#X connect 57 0 46 0;
#X connect 58 0 48 0;
#X connect 58 1 49 0;
#X connect 58 2 50 0;
#X connect 58 3 51 0;
#X connect 58 4 52 0;
#X connect 58 5 53 0;
#X connect 58 6 54 0;
#X connect 58 7 55 0;
#X connect 60 0 70 0;
#X connect 60 0 73 0;
#X connect 61 0 70 0;
#X connect 62 1 63 0;
#X connect 62 1 69 0;
#X connect 67 0 65 0;
#X connect 68 0 65 0;
#X connect 69 0 74 0;
#X connect 70 0 62 0;
#X connect 72 0 71 0;
#X connect 73 0 72 0;
#X connect 75 0 78 0;
#X connect 77 0 76 0;
#X connect 79 0 81 0;
#X connect 80 0 79 0;
#X connect 82 0 83 0;
#X connect 83 0 80 0;
#X connect 83 1 77 0;
#X connect 84 0 85 0;
#X connect 85 0 86 0;
#X connect 86 1 102 0;
#X connect 86 3 108 0;
#X connect 86 5 90 0;
#X connect 86 7 96 0;
#X connect 87 0 113 0;
#X connect 88 0 87 0;
#X connect 89 0 118 0;
#X connect 90 0 91 0;
#X connect 91 0 92 0;
#X connect 92 0 93 0;
#X connect 92 0 94 0;
#X connect 94 0 89 0;
#X connect 95 0 121 0;
#X connect 96 0 97 0;
#X connect 97 0 98 0;
#X connect 98 0 99 0;
#X connect 98 0 100 0;
#X connect 100 0 95 0;
#X connect 101 0 88 0;
#X connect 102 0 103 0;
#X connect 103 0 104 0;
#X connect 104 0 105 0;
#X connect 104 0 106 0;
#X connect 106 0 101 0;
#X connect 107 0 115 0;
#X connect 108 0 109 0;
#X connect 109 0 110 0;
#X connect 110 0 111 0;
#X connect 110 0 112 0;
#X connect 112 0 107 0;
#X connect 114 0 116 0;
#X connect 115 0 114 0;
#X connect 117 0 119 0;
#X connect 118 0 117 0;
#X connect 120 0 122 0;
#X connect 121 0 120 0;
