#N canvas 211 150 1112 655 12;
#X declare -lib ml.lib;
#X declare -lib timbreIDLib;
#X declare -lib zexy;
#X obj 18 135 declare -lib ml.lib;
#X text 8 93 Dependencies;
#X obj 18 112 declare -lib timbreIDLib;
#X text 10 7 Enric Guaus;
#X text 11 39 MAI;
#X text 10 56 Sonar+D;
#X obj 457 330 bng 15 250 50 0 empty empty Clear\ data 18 7 0 10 #ffc7c6 #000000 #000000;
#X msg 457 350 clear;
#X obj 250 275 f 0;
#X obj 278 275 + 1;
#X obj 250 252 bng 19 250 50 0 empty empty empty 0 -10 0 12 #fcfcfc #000000 #000000;
#X msg 277 253 0;
#X obj 258 229 t b b;
#X obj 697 13 bng 15 250 50 0 empty empty Write 18 7 0 10 #feffc6 #000000 #000000;
#X obj 697 78 bng 15 250 50 0 empty empty Read 18 7 0 10 #feffc6 #000000 #000000;
#X obj 697 185 timbreID;
#X obj 506 37 tgl 15 0 empty empty Rec\ data 18 7 0 10 #feffc6 #000000 #000000 0 1;
#X obj 457 37 spigot;
#X obj 457 60 s \$0-tID;
#X obj 457 14 r \$0-mfcc;
#X obj 697 161 r \$0-tID;
#X obj 457 397 s \$0-tID;
#X obj 464 374 s \$0-clear;
#X obj 257 205 r \$0-clear;
#X obj 521 59 s \$0-toCounter;
#X obj 250 182 r \$0-toCounter;
#X obj 457 279 spigot;
#X obj 506 279 tgl 15 0 empty empty Play 18 7 0 10 #feffc6 #000000 #000000 0 1;
#X obj 457 302 s \$0-id;
#X obj 457 253 r \$0-mfcc;
#X obj 457 229 s \$0-tID;
#X obj 761 161 r \$0-id;
#X obj 697 120 s \$0-tID;
#X obj 697 55 s \$0-tID;
#X obj 467 107 vradio 15 1 0 3 empty empty #clusters(2\,4\,8) 18 7 0 10 #feffc6 #000000 #000000 0;
#X obj 250 298 nbx 5 17 -1e+37 1e+37 0 0 empty empty #instances 70 10 0 12 #c6ffc7 #000000 #000000 0 256;
#X obj 697 233 nbx 5 17 -1e+37 1e+37 0 0 empty empty #cluster 70 10 0 12 #c6ffc7 #000000 #000000 0 256;
#X obj 457 425 bng 15 250 50 0 empty empty Uncluster 18 7 0 10 #ffc7c6 #000000 #000000;
#X obj 457 469 s \$0-tID;
#X obj 467 158 expr pow(2 \, $f1+1);
#X obj 523 183 nbx 5 17 -1e+37 1e+37 0 0 empty empty #clusters 70 10 0 12 #c6ffc7 #000000 #000000 0 256;
#X msg 457 445 uncluster;
#X obj 457 85 bng 15 250 50 0 empty empty Cluster:\ Bang\ and\ Wait! 18 7 0 10 #feffc6 #000000 #000000;
#X msg 457 205 cluster \$2;
#X obj 706 279 bng 19 250 50 0 empty empty empty 0 -10 0 12 #bbbbbb #000000 #000000;
#X obj 727 279 bng 19 250 50 0 empty empty empty 0 -10 0 12 #ffc7c6 #000000 #000000;
#X obj 748 279 bng 19 250 50 0 empty empty empty 0 -10 0 12 #ffe3c6 #000000 #000000;
#X obj 769 279 bng 19 250 50 0 empty empty empty 0 -10 0 12 #feffc6 #000000 #000000;
#X obj 790 279 bng 19 250 50 0 empty empty empty 0 -10 0 12 #c6ffc7 #000000 #000000;
#X obj 811 279 bng 19 250 50 0 empty empty empty 0 -10 0 12 #c6feff #000000 #000000;
#X obj 832 279 bng 19 250 50 0 empty empty empty 0 -10 0 12 #c7c6ff #000000 #000000;
#X obj 853 279 bng 19 250 50 0 empty empty empty 0 -10 0 12 #e3c6ff #000000 #000000;
#X obj 18 158 declare -lib zexy;
#X obj 457 182 pack f f;
#X obj 706 255 route 0 1 2 3 4 5 6 7;
#X text 11 23 16/06/2023;
#X obj 10 365 r~ \$0-audio;
#X obj 18 412 r \$0-metro;
#X obj 10 463 list split 1;
#X obj 50 534 s \$0-mfcc;
#N canvas 0 22 450 278 (subpatch) 0;
#X array \$0-mfcc 13 float 1;
#A 0 -0.339091 0.150922 -0.00926337 -0.192204 -0.0156336 0.0862867 0.0412348 0.00460351 -0.000555506 -0.0186518 -0.0556059 -0.059084 0.0129553;
#X coords 0 1 12 -1 200 70 1 0 0;
#X restore 7 572 graph;
#X obj 10 246 tabwrite~ audio_in;
#N canvas 179 204 450 278 (subpatch) 0;
#X array audio_in 100 float 3;
#A 0 -0.000149637 7.38092e-05 0.000211038 0.000321971 0.000508913 0.000571299 0.0005558 0.000640471 0.000618444 0.000314841 -0.000203171 -0.000424803 -0.000374671 -0.000268012 0.000104279 0.000469293 0.000590171 0.000679955 0.000679111 0.000380954 1.10651e-05 -0.000344525 -0.000876704 -0.00130807 -0.00141242 -0.00113026 -0.000286232 0.000586759 0.00108382 0.00126683 0.000946669 0.000460729 0.000109011 -0.000197033 -0.000306969 -0.000213458 -0.000208598 -0.000400791 -0.000709141 -0.00095576 -0.000890569 -0.000671531 -0.000582232 -0.000459371 -0.00023666 -3.46086e-05 0.00042694 0.00090131 0.000971962 0.000670868 -8.72026e-06 -0.000524193 -0.000731575 -0.000814275 -0.000360121 0.000220465 0.000335354 0.000311526 0.000320301 0.000241121 4.61499e-05 -0.000221967 -0.000557233 -0.000767331 -0.000671041 -0.000535632 -0.00052212 -0.000363129 -8.18057e-06 0.000138455 9.02118e-05 4.35221e-05 -7.92884e-05 -0.000155816 -0.000181086 -0.000145963 1.38342e-05 0.000157281 0.000300335 0.000335136 0.00019866 7.81631e-05 -8.92453e-05 -0.000409562 -0.000621247 -0.000538398 -0.000393342 -0.000109433 0.000448198 0.000865777 0.000806774 0.000308326 -0.000283598 -0.000776772 -0.00103844 -0.000729265 -0.000278736 -0.000205037 -0.000265106 -0.000154098;
#X coords 0 1 100 -1 200 70 1 0 0;
#X restore 9 283 graph;
#X obj 10 197 r~ \$0-audio;
#X obj 18 221 r \$0-metro;
#X obj 58 490 list length;
#X obj 10 437 mfcc~ 1024 250;
#X obj 146 432 vu 15 120 empty empty -1 -10 0 10 #404040 #000000 1 0;
#X obj 145 407 - 96;
#X obj 145 384 env~;
#X obj 58 512 nbx 3 19 -1e+37 1e+37 0 0 empty empty #mfcc 47 10 0 12 #c6ffc7 #000000 #000000 0 256;
#X obj 328 116 adc~;
#X msg 328 77 \; pd dsp \$1;
#X obj 328 57 tgl 15 0 empty empty DSP 17 7 0 10 #ffffff #000000 #000000 0 1;
#X obj 328 141 s~ \$0-audio;
#X obj 249 77 metro 100;
#X obj 249 57 tgl 15 0 empty empty FrameRate 17 7 0 10 #ffffff #000000 #000000 0 1;
#X obj 249 101 s \$0-metro;
#X obj 249 13 tgl 15 0 empty empty Audio\ on/off 18 7 0 10 #feffc6 #000000 #000000 0 1;
#X obj 249 33 t b b;
#X msg 697 32 write /Users/enric/Desktop/MAI_unsupervised.timid;
#X msg 697 97 read /Users/enric/Desktop/MAI_unsupervised.timid;
#X obj 742 208 max 0;
#X obj 783 208 min 1;
#X obj 867 210 nbx 4 17 -1e+37 1e+37 0 0 empty empty proximity 55 10 0 12 #c6ffc7 #000000 #000000 0 256;
#X obj 825 208 * 127;
#X obj 714 208 / 2;
#X obj 867 232 s \$0-prox;
#X obj 697 304 + 1;
#X obj 725 304 s \$0-chan;
#X obj 698 328 r \$0-prox;
#X obj 741 354 tgl 15 0 empty empty MIDI\ out 18 7 0 10 #feffc6 #000000 #000000 0 1;
#X obj 698 376 moses;
#X obj 698 421 ctlout;
#X obj 698 352 i;
#X obj 717 398 r \$0-chan;
#X obj 711 482 nbx 4 17 0 127 0 0 empty empty value\ 4\ MIDI\ mapping 50 7 0 10 #ffc7c6 #ffc7c6 #000000 0 256;
#X obj 699 460 hradio 15 1 0 8 empty empty #controller\ 4\ MIDI\ mapping 0 -10 0 10 #ffc7c6 #000000 #000000 0;
#X obj 711 506 s \$0-prox;
#X obj 699 528 + 1;
#X obj 727 528 s \$0-chan;
#X obj 741 376 * 127;
#X text 251 605 TODO:;
#X text 252 621 - Think good MIDI mapping strategies;
#X connect 6 0 7 0;
#X connect 7 0 21 0;
#X connect 7 0 22 0;
#X connect 8 0 9 0;
#X connect 8 0 35 0;
#X connect 9 0 8 1;
#X connect 10 0 8 0;
#X connect 11 0 8 1;
#X connect 12 0 10 0;
#X connect 12 1 11 0;
#X connect 13 0 80 0;
#X connect 14 0 81 0;
#X connect 15 0 36 0;
#X connect 15 1 86 0;
#X connect 16 0 17 1;
#X connect 17 0 18 0;
#X connect 17 0 24 0;
#X connect 19 0 17 0;
#X connect 20 0 15 0;
#X connect 23 0 12 0;
#X connect 25 0 10 0;
#X connect 26 0 28 0;
#X connect 27 0 26 1;
#X connect 29 0 26 0;
#X connect 31 0 15 1;
#X connect 34 0 39 0;
#X connect 36 0 54 0;
#X connect 36 0 88 0;
#X connect 37 0 41 0;
#X connect 39 0 40 0;
#X connect 39 0 53 1;
#X connect 41 0 38 0;
#X connect 42 0 53 0;
#X connect 43 0 30 0;
#X connect 53 0 43 0;
#X connect 54 0 44 0;
#X connect 54 1 45 0;
#X connect 54 2 46 0;
#X connect 54 3 47 0;
#X connect 54 4 48 0;
#X connect 54 5 49 0;
#X connect 54 6 50 0;
#X connect 54 7 51 0;
#X connect 56 0 66 0;
#X connect 56 0 69 0;
#X connect 57 0 66 0;
#X connect 58 1 59 0;
#X connect 58 1 65 0;
#X connect 63 0 61 0;
#X connect 64 0 61 0;
#X connect 65 0 70 0;
#X connect 66 0 58 0;
#X connect 68 0 67 0;
#X connect 69 0 68 0;
#X connect 71 0 74 0;
#X connect 73 0 72 0;
#X connect 75 0 77 0;
#X connect 76 0 75 0;
#X connect 78 0 79 0;
#X connect 79 0 76 0;
#X connect 79 1 73 0;
#X connect 80 0 33 0;
#X connect 81 0 32 0;
#X connect 82 0 83 0;
#X connect 83 0 85 0;
#X connect 84 0 87 0;
#X connect 85 0 84 0;
#X connect 86 0 82 0;
#X connect 88 0 89 0;
#X connect 90 0 94 0;
#X connect 91 0 101 0;
#X connect 92 0 93 0;
#X connect 94 0 92 0;
#X connect 95 0 93 1;
#X connect 96 0 98 0;
#X connect 97 0 99 0;
#X connect 99 0 100 0;
#X connect 101 0 92 1;
